<svg width="107.9" height="70.9" viewBox="0 0 107.9 70.9" xmlns="http://www.w3.org/2000/svg"><g id="svgGroup" stroke-linecap="round" fill-rule="evenodd" font-size="9pt" stroke="#000" stroke-width="0.25mm" fill="#fff" style="stroke:#000;stroke-width:0.25mm;fill:#fff"><path d="M 4.2 70.9 L 0 70.9 L 0 22.5 L 4.1 22.5 L 4.1 34.3 L 3 34.3 A 21.233 21.233 0 0 1 4.543 30.418 A 16.73 16.73 0 0 1 6.55 27.4 Q 8.9 24.6 12.2 23.15 A 17.304 17.304 0 0 1 17.753 21.772 A 20.864 20.864 0 0 1 19.5 21.7 Q 24.749 21.7 28.27 23.754 A 12.197 12.197 0 0 1 29.85 24.85 A 12.661 12.661 0 0 1 33.307 29.413 Q 34.318 31.594 34.8 34.4 L 33.3 34.4 Q 34.9 28.6 39.55 25.15 Q 44.2 21.7 50.7 21.7 A 22.715 22.715 0 0 1 54.422 21.988 Q 56.545 22.341 58.288 23.126 A 12.743 12.743 0 0 1 59.5 23.75 A 12.622 12.622 0 0 1 64.308 28.839 A 15.828 15.828 0 0 1 64.8 29.85 A 18.974 18.974 0 0 1 66.015 33.728 Q 66.399 35.589 66.531 37.752 A 38.55 38.55 0 0 1 66.6 40.1 L 66.6 70.9 L 62.4 70.9 L 62.4 40.5 A 34.27 34.27 0 0 0 62.182 36.493 Q 61.69 32.322 60.081 29.816 A 9.191 9.191 0 0 0 59.65 29.2 Q 57.312 26.14 52.337 25.681 A 20.019 20.019 0 0 0 50.5 25.6 Q 45.9 25.6 42.5 27.75 A 13.812 13.812 0 0 0 37.737 32.891 A 16.862 16.862 0 0 0 37.25 33.85 A 19.106 19.106 0 0 0 35.729 38.869 A 25.992 25.992 0 0 0 35.4 43.1 L 35.4 70.9 L 31.2 70.9 L 31.2 40.5 A 34.27 34.27 0 0 0 30.982 36.493 Q 30.49 32.322 28.881 29.816 A 9.191 9.191 0 0 0 28.45 29.2 Q 26.112 26.14 21.137 25.681 A 20.019 20.019 0 0 0 19.3 25.6 Q 14.7 25.6 11.3 27.75 A 13.812 13.812 0 0 0 6.537 32.891 A 16.862 16.862 0 0 0 6.05 33.85 A 19.106 19.106 0 0 0 4.529 38.869 A 25.992 25.992 0 0 0 4.2 43.1 L 4.2 70.9 Z M 107.9 42.7 L 81 42.7 L 81 39.8 L 95.6 23.7 A 46.778 46.778 0 0 0 97.587 21.32 Q 98.487 20.161 99.168 19.099 A 19.513 19.513 0 0 0 100.2 17.3 Q 101.6 14.5 101.6 11.5 Q 101.6 8.59 100.369 6.736 A 6.039 6.039 0 0 0 99.5 5.7 A 6.804 6.804 0 0 0 96.713 4.125 Q 95.651 3.806 94.375 3.727 A 14.049 14.049 0 0 0 93.5 3.7 A 14.74 14.74 0 0 0 89.476 4.282 A 18.699 18.699 0 0 0 87.3 5.05 Q 84.1 6.4 81.7 8.8 L 79.4 5.8 A 17.658 17.658 0 0 1 84.225 2.283 A 21.253 21.253 0 0 1 85.85 1.55 Q 89.7 0 93.7 0 A 17.27 17.27 0 0 1 96.71 0.249 Q 98.639 0.591 100.2 1.4 Q 102.9 2.8 104.35 5.35 Q 105.8 7.9 105.8 11.4 A 15.169 15.169 0 0 1 104.671 17.076 A 18.07 18.07 0 0 1 104.2 18.15 A 22.789 22.789 0 0 1 102.455 21.148 Q 101.49 22.565 100.231 24.038 A 43.25 43.25 0 0 1 99.2 25.2 L 85.5 40 L 85.5 39 L 107.9 39 L 107.9 42.7 Z" vector-effect="non-scaling-stroke"/></g></svg>
