<svg width="90.525" height="53.025" viewBox="0 0 90.525 53.025" xmlns="http://www.w3.org/2000/svg"><g id="svgGroup" stroke-linecap="round" fill-rule="evenodd" font-size="9pt" stroke="#ffffff" stroke-width=".35mm" fill="#000000" style="stroke:#ffffff;stroke-width:.35mm;fill:#000000"><path d="M 6.75 53.025 L 0 53.025 L 0 14.025 L 6.525 14.025 L 6.525 20.55 Q 8.625 17.4 11.85 15.263 A 12.904 12.904 0 0 1 18.752 13.132 A 15.643 15.643 0 0 1 19.2 13.125 A 15.745 15.745 0 0 1 22.513 13.455 Q 24.752 13.937 26.464 15.123 A 9.846 9.846 0 0 1 26.812 15.375 A 11.813 11.813 0 0 1 30.898 21.142 A 14.365 14.365 0 0 1 30.975 21.375 Q 33.3 17.925 36.488 15.525 A 11.752 11.752 0 0 1 41.58 13.363 A 16.084 16.084 0 0 1 44.4 13.125 A 16.078 16.078 0 0 1 48.066 13.517 Q 50.755 14.147 52.622 15.789 A 9.746 9.746 0 0 1 53.888 17.138 Q 56.836 20.939 56.991 26.927 A 25.948 25.948 0 0 1 57 27.6 L 57 53.025 L 50.25 53.025 L 50.25 28.125 A 14.282 14.282 0 0 0 49.997 25.358 Q 49.562 23.153 48.375 21.563 A 5.98 5.98 0 0 0 44.015 19.091 A 8.009 8.009 0 0 0 43.2 19.05 A 8.945 8.945 0 0 0 38.131 20.646 A 11.997 11.997 0 0 0 36.937 21.563 Q 34.05 24.075 31.875 27.45 L 31.875 53.025 L 25.125 53.025 L 25.125 28.125 A 14.282 14.282 0 0 0 24.872 25.358 Q 24.437 23.153 23.25 21.563 A 5.98 5.98 0 0 0 18.89 19.091 A 8.009 8.009 0 0 0 18.075 19.05 A 9.015 9.015 0 0 0 13.336 20.421 A 12.183 12.183 0 0 0 11.85 21.488 Q 8.925 23.925 6.75 27.225 L 6.75 53.025 Z M 90.525 32.325 L 68.625 32.325 Q 68.55 31.725 68.513 31.088 A 20.234 20.234 0 0 1 68.487 30.494 Q 68.475 30.089 68.475 29.625 A 11.949 11.949 0 0 1 68.917 26.318 A 10.06 10.06 0 0 1 70.087 23.7 Q 71.7 21.15 74.063 19.088 A 77.725 77.725 0 0 1 77.877 15.959 A 68.933 68.933 0 0 1 78.75 15.3 Q 80.871 13.727 82.399 12.247 A 25.353 25.353 0 0 0 82.688 11.963 Q 83.911 10.74 84.206 9.452 A 3.686 3.686 0 0 0 84.3 8.625 A 3.222 3.222 0 0 0 83.229 6.207 A 4.575 4.575 0 0 0 82.95 5.963 A 4.85 4.85 0 0 0 80.661 4.961 A 6.6 6.6 0 0 0 79.575 4.875 A 9.127 9.127 0 0 0 76.65 5.337 A 8.506 8.506 0 0 0 75.825 5.663 A 14.078 14.078 0 0 0 73.884 6.75 A 18.114 18.114 0 0 0 72.375 7.875 L 68.85 4.125 Q 71.25 2.175 74.025 1.088 Q 76.8 0 80.175 0 Q 84.266 0 86.934 1.829 A 9.01 9.01 0 0 1 87.637 2.363 Q 90.45 4.725 90.45 8.25 Q 90.45 10.8 89.025 12.825 A 18.482 18.482 0 0 1 86.386 15.806 A 21.516 21.516 0 0 1 85.5 16.575 Q 83.4 18.3 81.188 19.95 A 33.479 33.479 0 0 0 78.627 22.057 A 27.84 27.84 0 0 0 77.287 23.363 Q 75.6 25.125 75.225 27.3 L 90.525 27.3 L 90.525 32.325 Z" vector-effect="non-scaling-stroke"/></g></svg>
